<?xml version="1.0" encoding="UTF-8"?>
<svg width="28px" height="25px" viewBox="0 0 28 25" version="1.1" xmlns="http://www.w3.org/2000/svg" xmlns:xlink="http://www.w3.org/1999/xlink">
    <!-- Generator: Sketch 60 (88103) - https://sketch.com -->
    <title>Group 3</title>
    <desc>Created with Sketch.</desc>
    <g id="Desktop" stroke="none" stroke-width="1" fill="none" fill-rule="evenodd">
        <g id="Payment-Step-1-" transform="translate(-857.000000, -535.000000)" fill="#fff">
            <g id="Popup" transform="translate(459.000000, 217.000000)">
                <g id="Group-7" transform="translate(59.000000, 243.000000)">
                    <g id="First-Question">
                        <g id="Group-5" transform="translate(2.000000, 36.000000)">
                            <g id="Group-3" transform="translate(337.000000, 39.000000)">
                                <path d="M26.173913,24.7093913 C26.0424348,24.7093913 25.9109565,24.6655652 25.8062609,24.5864348 L23.498087,22.8406957 C23.3909565,22.7603478 23.2643478,22.7177391 23.1304348,22.7177391 C22.9965217,22.7177391 22.8686957,22.7603478 22.7627826,22.8406957 L20.4533913,24.5864348 C20.3474783,24.6667826 20.2196522,24.7093913 20.0881739,24.7093913 C19.8946087,24.7093913 19.7168696,24.6217391 19.6012174,24.4683478 C19.5208696,24.3612174 19.4782609,24.2346087 19.4782609,24.1006957 L19.4782609,20.2646957 C18.9718261,19.690087 18.6041739,18.9986087 18.4142609,18.262087 L2.43478261,18.262087 C1.092,18.262087 0,17.1688696 0,15.826087 L0,2.43478261 C0,1.092 1.092,0 2.43478261,0 L24.3478261,0 C25.6906087,0 26.7826087,1.092 26.7826087,2.43478261 L26.7826087,13.8234783 C27.5678261,14.7121739 28,15.8565217 28,17.0446957 C28,18.2316522 27.5678261,19.376 26.7826087,20.2646957 L26.7826087,24.1006957 C26.7826087,24.4366957 26.5086957,24.7093913 26.173913,24.7093913 L26.173913,24.7093913 Z M23.1304348,14.6086957 C21.7876522,14.6086957 20.6956522,15.701913 20.6956522,17.0446957 C20.6956522,18.3862609 21.7876522,19.4782609 23.1304348,19.4782609 C24.4732174,19.4782609 25.5652174,18.3862609 25.5652174,17.0446957 C25.5652174,15.701913 24.4732174,14.6086957 23.1304348,14.6086957 L23.1304348,14.6086957 Z M2.43478261,2.43478261 L2.43478261,15.826087 L18.4142609,15.826087 C18.9681739,13.6761739 20.9074783,12.173913 23.1304348,12.173913 C23.541913,12.173913 23.9509565,12.2262609 24.3478261,12.3273043 L24.3478261,2.43478261 L2.43478261,2.43478261 Z M15.826087,12.173913 L9.73913043,12.173913 C9.06834783,12.173913 8.52173913,11.6273043 8.52173913,10.9565217 C8.52173913,10.2857391 9.06834783,9.73913043 9.73913043,9.73913043 L15.826087,9.73913043 C16.498087,9.73913043 17.0434783,10.2857391 17.0434783,10.9565217 C17.0434783,11.6273043 16.498087,12.173913 15.826087,12.173913 L15.826087,12.173913 Z M18.2608696,8.52173913 L7.30434783,8.52173913 C6.63356522,8.52173913 6.08695652,7.97634783 6.08695652,7.30556522 C6.08695652,6.63356522 6.63356522,6.08817391 7.30434783,6.08817391 L18.2608696,6.08817391 C18.9328696,6.08817391 19.4782609,6.63356522 19.4782609,7.30556522 C19.4782609,7.97634783 18.9328696,8.52173913 18.2608696,8.52173913 L18.2608696,8.52173913 Z" id="Fill-1"></path>
                            </g>
                        </g>
                    </g>
                </g>
            </g>
        </g>
    </g>
</svg>