<?xml version="1.0" encoding="UTF-8"?>
<svg width="28px" height="28px" viewBox="0 0 28 28" version="1.1" xmlns="http://www.w3.org/2000/svg" xmlns:xlink="http://www.w3.org/1999/xlink">
    <!-- Generator: Sketch 60 (88103) - https://sketch.com -->
    <title>Group 3</title>
    <desc>Created with Sketch.</desc>
    <g id="Desktop" stroke="none" stroke-width="1" fill="none" fill-rule="evenodd">
        <g id="Payment-Step-1-" transform="translate(-571.000000, -533.000000)" fill="#199BE9">
            <g id="Popup" transform="translate(459.000000, 217.000000)">
                <g id="Group-7" transform="translate(59.000000, 243.000000)">
                    <g id="First-Question">
                        <g id="Group-5" transform="translate(2.000000, 36.000000)">
                            <g id="Group-3" transform="translate(51.000000, 37.000000)">
                                <path d="M19.6373333,28 L7.67333333,28 C5.468,28 3.67333333,26.2066667 3.67333333,24 L3.33466667,24 C1.49733333,24 0,22.5053333 0,20.6666667 C0,20.4946667 0.0106666667,20.3453333 0.032,20.2226667 L0.518666667,16.6093333 C0.745333333,14.9266667 2.01333333,13.5666667 3.67333333,13.2253333 L3.67333333,12.684 C3.67333333,11.3066667 4.028,9.952 4.69866667,8.76666667 C5.36666667,7.57333333 6.33866667,6.56533333 7.508,5.85333333 C7.99333333,5.55866667 8.49733333,5.28933333 9.00666667,5.056 L9.00666667,4 C9.00666667,1.79466667 10.8013333,0 13.0066667,0 L14.34,0 C16.5466667,0 18.34,1.79466667 18.34,4 L18.34,5.05866667 C18.8346667,5.28533333 19.3293333,5.54933333 19.808,5.84266667 C20.976,6.556 21.9453333,7.564 22.6133333,8.75733333 C23.2826667,9.956 23.636,11.3093333 23.636,12.6693333 L23.636,13.2186667 C25.3173333,13.5466667 26.6013333,14.9093333 26.8306667,16.6093333 L27.3173333,20.2226667 C27.436,21.104 27.204,21.98 26.664,22.688 C26.124,23.396 25.34,23.852 24.4586667,23.9706667 C24.3346667,23.9906667 24.1853333,24 24.0133333,24 L23.636,24 C23.636,26.2053333 21.8413333,28 19.6373333,28 L19.6373333,28 Z M13.6733333,6.668 C12.096,6.668 10.4893333,7.16 8.896,8.12933333 C7.32,9.09066667 6.34,10.8346667 6.34,12.684 L6.34,24 C6.34,24.736 6.94,25.3333333 7.67333333,25.3333333 L19.6373333,25.3333333 C20.372,25.3333333 20.9706667,24.736 20.9706667,24 L20.9706667,12.6693333 C20.9706667,10.8253333 19.992,9.08133333 18.4173333,8.11866667 C16.8413333,7.156 15.2453333,6.668 13.6733333,6.668 L13.6733333,6.668 Z M23.636,16.056 L23.636,21.3333333 L24.0133333,21.3333333 C24.04,21.3333333 24.0653333,21.332 24.1026667,21.328 C24.2773333,21.304 24.4346667,21.2133333 24.5426667,21.072 C24.6506667,20.9293333 24.6973333,20.7546667 24.6733333,20.5786667 L24.1853333,16.9653333 C24.1373333,16.6 23.9373333,16.268 23.636,16.056 L23.636,16.056 Z M3.67333333,16.0826667 C3.39066667,16.3 3.20933333,16.612 3.16133333,16.9653333 L2.67333333,20.5786667 C2.66933333,20.612 2.66666667,20.64 2.66666667,20.6666667 C2.66666667,21.0346667 2.96666667,21.3333333 3.33466667,21.3333333 L3.67333333,21.3333333 L3.67333333,16.0826667 Z M13.6733333,4 C14.3346667,4 15.0066667,4.06533333 15.6733333,4.192 L15.6733333,4 C15.6733333,3.26533333 15.0746667,2.66666667 14.34,2.66666667 L13.0066667,2.66666667 C12.272,2.66666667 11.6733333,3.26533333 11.6733333,4 L11.6733333,4.192 C12.3346667,4.064 13.0093333,4 13.6733333,4 L13.6733333,4 Z M17.6733333,24 L9.67333333,24 C8.57066667,24 7.67333333,23.104 7.67333333,22 L7.67333333,14.0013333 C7.67333333,12.8973333 8.57066667,12 9.67333333,12 L17.6733333,12 C18.776,12 19.6733333,12.8973333 19.6733333,14.0013333 L19.6733333,22 C19.6733333,23.104 18.776,24 17.6733333,24 L17.6733333,24 Z M10.34,21.3333333 L17.0066667,21.3333333 L17.0066667,18.6666667 L10.34,18.6666667 L10.34,21.3333333 Z M10.34,16 L17.0066667,16 L17.0066667,14.6666667 L10.34,14.6666667 L10.34,16 Z" id="Fill-1"></path>
                            </g>
                        </g>
                    </g>
                </g>
            </g>
        </g>
    </g>
</svg>