<?xml version="1.0" encoding="UTF-8"?>
<svg width="28px" height="24px" viewBox="0 0 28 24" version="1.1" xmlns="http://www.w3.org/2000/svg" xmlns:xlink="http://www.w3.org/1999/xlink">
    <!-- Generator: Sketch 60 (88103) - https://sketch.com -->
    <title>Group 3</title>
    <desc>Created with Sketch.</desc>
    <g id="Desktop" stroke="none" stroke-width="1" fill="none" fill-rule="evenodd">
        <g id="Payment-Step-1-" transform="translate(-711.000000, -535.000000)" fill="#199BE9">
            <g id="Popup" transform="translate(459.000000, 217.000000)">
                <g id="Group-7" transform="translate(59.000000, 243.000000)">
                    <g id="First-Question">
                        <g id="Group-5" transform="translate(2.000000, 36.000000)">
                            <g id="Group-3" transform="translate(191.000000, 39.000000)">
                                <path d="M24.512119,23.2653099 C23.2236255,23.2653099 22.1757754,22.2174598 22.1757754,20.9289662 C22.1757754,20.0983961 22.6231852,19.32273 23.3439472,18.9056927 L23.3439472,10.7261536 L22.1757754,11.1350137 L22.1757754,16.5833671 C22.1757754,17.5903312 21.5332809,18.4804781 20.5788845,18.799389 L14.7368573,20.7467314 C14.4997184,20.8261671 14.2508978,20.865885 13.9974045,20.865885 C13.7450794,20.865885 13.497427,20.8261671 13.2591199,20.7467314 L7.41826083,18.799389 C6.46386446,18.4804781 5.82136996,17.5903312 5.82136996,16.5833671 L5.82136996,11.1338456 L1.56455187,9.64442651 C0.348485007,9.2180438 -0.294009491,7.88282341 0.131205049,6.66675655 C0.346148664,6.05580269 0.807576531,5.55699333 1.39983964,5.29882735 L13.0616989,0.195084693 C13.3607509,0.0654176217 13.6761572,0 13.9974045,0 C14.3209881,0 14.6363945,0.0654176217 14.9354465,0.195084693 L26.599642,5.29882735 C27.1697099,5.54764795 27.6101107,6.0055713 27.8379042,6.58732087 C28.0656977,7.16790226 28.0528478,7.80338773 27.802859,8.37462374 C27.5435249,8.96805503 27.0447155,9.43065107 26.4349298,9.64442651 L25.6802908,9.90726517 L25.6802908,18.9056927 C26.4010528,19.32273 26.8484626,20.0983961 26.8484626,20.9289662 C26.8484626,22.2174598 25.8017807,23.2653099 24.512119,23.2653099 L24.512119,23.2653099 Z M8.15771359,11.9515658 L8.15771359,16.5833671 L13.9985727,18.5295413 L19.8394317,16.5833671 L19.8394317,11.9515658 L14.7707342,13.7260188 C14.5207455,13.8136317 14.2625795,13.8568541 13.9985727,13.8568541 C13.7345658,13.8568541 13.4752317,13.8136317 13.2264111,13.7260188 L8.15771359,11.9515658 Z M13.9985727,2.33517546 L2.33671344,7.43891812 L13.9985727,11.5205104 L20.9211588,9.09889027 L16.5253283,7.37934136 C16.2356217,7.26602869 16.00666,7.04641239 15.8793293,6.7602103 C15.7543349,6.4740082 15.748494,6.15626547 15.8618067,5.86655886 C16.0382007,5.41447636 16.4657515,5.12360158 16.9493747,5.12360158 C17.0953962,5.12360158 17.2379131,5.15046953 17.3769256,5.20420544 L24.3065208,7.91319588 L25.6627682,7.43891812 L13.9985727,2.33517546 Z" id="Fill-1"></path>
                            </g>
                        </g>
                    </g>
                </g>
            </g>
        </g>
    </g>
</svg>